<?xml version="1.0" encoding="UTF-8" standalone="no"?>
<!-- Created with Inkscape (http://www.inkscape.org/) -->

<svg
   xmlns:dc="http://purl.org/dc/elements/1.1/"
   xmlns:cc="http://creativecommons.org/ns#"
   xmlns:rdf="http://www.w3.org/1999/02/22-rdf-syntax-ns#"
   xmlns:svg="http://www.w3.org/2000/svg"
   xmlns="http://www.w3.org/2000/svg"
   xmlns:xlink="http://www.w3.org/1999/xlink"
   xmlns:sodipodi="http://sodipodi.sourceforge.net/DTD/sodipodi-0.dtd"
   xmlns:inkscape="http://www.inkscape.org/namespaces/inkscape"
   width="210mm"
   height="297mm"
   viewBox="0 0 210 297"
   version="1.1"
   id="svg8"
   inkscape:version="0.92.3 (2405546, 2018-03-11)"
   sodipodi:docname="logo.svg">
  <defs
     id="defs2">
    <linearGradient
       inkscape:collect="always"
       id="linearGradient4530">
      <stop
         style="stop-color:#000000;stop-opacity:1;"
         offset="0"
         id="stop4526" />
      <stop
         style="stop-color:#000000;stop-opacity:0;"
         offset="1"
         id="stop4528" />
    </linearGradient>
    <linearGradient
       inkscape:collect="always"
       xlink:href="#linearGradient4530"
       id="linearGradient4532"
       x1="66.043205"
       y1="128.44955"
       x2="93.655306"
       y2="128.44955"
       gradientUnits="userSpaceOnUse" />
  </defs>
  <sodipodi:namedview
     id="base"
     pagecolor="#ffffff"
     bordercolor="#666666"
     borderopacity="1.0"
     inkscape:pageopacity="0.0"
     inkscape:pageshadow="2"
     inkscape:zoom="0.35"
     inkscape:cx="400"
     inkscape:cy="528.43042"
     inkscape:document-units="mm"
     inkscape:current-layer="layer1"
     showgrid="false"
     inkscape:window-width="1366"
     inkscape:window-height="706"
     inkscape:window-x="-8"
     inkscape:window-y="-8"
     inkscape:window-maximized="1" />
  <metadata
     id="metadata5">
    <rdf:RDF>
      <cc:Work
         rdf:about="">
        <dc:format>image/svg+xml</dc:format>
        <dc:type
           rdf:resource="http://purl.org/dc/dcmitype/StillImage" />
        <dc:title />
      </cc:Work>
    </rdf:RDF>
  </metadata>
  <g
     inkscape:label="Capa 1"
     inkscape:groupmode="layer"
     id="layer1">
    <text
       xml:space="preserve"
       style="font-style:normal;font-weight:normal;font-size:10.58333302px;line-height:1.25;font-family:sans-serif;letter-spacing:0px;word-spacing:0px;fill:#000000;fill-opacity:1;stroke:none;stroke-width:0.26458332"
       x="44.601189"
       y="56.607143"
       id="text3715"><tspan
         sodipodi:role="line"
         id="tspan3713"
         x="44.601189"
         y="65.970909"
         style="stroke-width:0.26458332" /></text>
    <text
       xml:space="preserve"
       style="font-style:normal;font-weight:normal;font-size:89.70668793px;line-height:1.25;font-family:sans-serif;letter-spacing:0px;word-spacing:0px;fill:#000000;fill-opacity:1;stroke:none;stroke-width:2.2426672"
       x="7.718915"
       y="91.149155"
       id="text3719"
       transform="scale(1.2242809,0.81680603)"><tspan
         sodipodi:role="line"
         id="tspan3717"
         x="7.718915"
         y="91.149155"
         style="fill:#000000;fill-opacity:1;stroke-width:2.2426672">D</tspan><tspan
         sodipodi:role="line"
         x="7.718915"
         y="203.28252"
         style="fill:#000000;fill-opacity:1;stroke-width:2.2426672"
         id="tspan3721">   M</tspan></text>
    <path
       sodipodi:type="spiral"
       style="fill:none;fill-rule:evenodd;stroke:#000000;stroke-width:0.26458332"
       id="path3739"
       sodipodi:cx="87.690475"
       sodipodi:cy="117.65029"
       sodipodi:expansion="1"
       sodipodi:revolution="3"
       sodipodi:radius="6.9387207"
       sodipodi:argument="-16.766371"
       sodipodi:t0="0.0074515184"
       d="m 87.659068,117.69136 c -0.256641,0.25308 -0.495307,-0.21252 -0.468983,-0.42372 0.07121,-0.57133 0.767696,-0.75114 1.234286,-0.57706 0.813188,0.30339 1.036729,1.3163 0.685133,2.04485 -0.510236,1.05728 -1.871155,1.32888 -2.855412,0.79321 -1.303634,-0.70949 -1.623835,-2.42826 -0.901283,-3.66598 0.905596,-1.55126 2.986433,-1.92024 4.476537,-1.00935 1.799651,1.10011 2.2175,3.54522 1.117433,5.2871 -1.29371,2.0485 -4.104389,2.51529 -6.097662,1.2255 -2.297663,-1.48674 -2.813438,-4.66381 -1.333583,-6.90822 1.679394,-2.54704 5.223423,-3.11184 7.718788,-1.44166 2.796572,1.87178 3.410421,5.78316 1.549733,8.52935 -1.853675,2.73584 -5.561857,3.60369 -8.495361,2.15253"
       transform="matrix(6.8314798,0,0,4.5719487,-442.4238,-492.81492)" />
    <path
       sodipodi:type="spiral"
       style="fill:none;fill-rule:evenodd;stroke:#000000;stroke-width:0.26458332"
       id="path3739-5"
       sodipodi:cx="72.563515"
       sodipodi:cy="136.34744"
       sodipodi:expansion="1"
       sodipodi:revolution="3"
       sodipodi:radius="6.9387207"
       sodipodi:argument="-16.766371"
       sodipodi:t0="0.0074515184"
       d="m 72.532107,136.38851 c -0.256641,0.25308 -0.495306,-0.21252 -0.468983,-0.42372 0.07121,-0.57133 0.767696,-0.75114 1.234286,-0.57706 0.813189,0.3034 1.03673,1.3163 0.685133,2.04485 -0.510236,1.05728 -1.871155,1.32888 -2.855411,0.79321 -1.303634,-0.70949 -1.623836,-2.42826 -0.901283,-3.66597 0.905596,-1.55127 2.986432,-1.92025 4.476537,-1.00936 1.79965,1.10011 2.217499,3.54522 1.117433,5.2871 -1.293711,2.0485 -4.10439,2.51529 -6.097663,1.22551 -2.297663,-1.48675 -2.813438,-4.66382 -1.333583,-6.90823 1.679395,-2.54704 5.223424,-3.11184 7.718788,-1.44166 2.796573,1.87178 3.410422,5.78317 1.549733,8.52935 -1.853675,2.73584 -5.561856,3.6037 -8.495361,2.15253"
       transform="matrix(6.8314798,0,0,4.5719487,-442.4238,-492.81492)" />
  </g>
</svg>
